<svg version="1.1" height="80" xmlns="http://www.w3.org/2000/svg" xmlns:xlink="http://www.w3.org/1999/xlink" x="0px" y="0px"
	 viewBox="0 0 750 750" style="enable-background:new 0 0 750 750;" xml:space="preserve">
<style type="text/css">
	.st0{fill:#75A86E;}
	.st1{fill:#5B9270;}
</style>
<g>
	<path class="st0" d="M131.8,328.5c-5.8,0.3,0.6,0.4,7.9,0.2c3.5-0.3,18.9-0.8,10.2-0.8C145.2,328,141.3,328.1,131.8,328.5"/>
	<path class="st0" d="M169.8,322.3c-0.3-8.5-0.5-17.3-0.8-25.7c-0.2-3.8-0.3-7.6-0.5-11.4l-0.1-2.9c-0.1-0.9,0.1-2.3-0.4-3.3
		c-0.3-0.5-0.8-0.9-1.4-1c-0.6-0.1-1.2,0-1.8,0l-3,0.1c-7.9,0.2-16.1,0.4-24.4,0.6c-8.3,0.2-16.8,0.4-25.5,0.6
		c-8.4,0.3-17,0.5-25.7,0.8c0-1.1-0.1-2.2-0.1-3.2c-0.3-15.5-0.8-35.6-1.2-55.9c0.2,0,0.3,0,0.5,0c0,0,0.1,0.1,0.1,0.1
		c0.3,0,0.5-0.1,0.5-0.1c0.8,0,1.7,0,2.7,0c1.1,0,2.3,0,3.5,0c2.5-0.1,5.1-0.1,7.9-0.2c5.6-0.1,11.6-0.3,17.3-0.5
		c11.3-0.3,21.2-0.6,23.1-0.3l3.7-0.2c18.6-0.5,0,0.3,10.7,0.1c3-0.1,6.1-0.2,9.2-0.2c0.8,0,1.5-0.2,2.1-0.5c0.6-0.4,1.1-1,1.3-1.7
		c0.2-0.7,0.2-1.5,0.1-2.3l0-1.6c0-2-0.1-3.9-0.1-5.9c-0.1-3.9-0.1-7.7-0.2-11.3c-0.2-7.1-0.4-13.3-0.7-17c0-1.4,0.1,0.5,0.1-1
		l-0.2-6.3c0-1.1-0.3-2.1-1.2-2.7c-0.8-0.6-1.8-0.8-2.9-0.8l-4.3,0.1c-0.9,0.2-3.7,0.4-1.4,0.5c-3.2,0.1-6.1,0.3-10.7,0.4
		c-11.6,0.3-1.4-0.3-5.6-0.3c-29.3,0.9-62.9,1.9-90.8,2.3c0-0.1-1.2-0.1-3.4-0.2c-2.3,0-5.4,0.1-9,0.1c-1.1,0-2.1,0.3-2.9,1.2
		c-0.7,0.8-0.9,2-0.8,3.2c0,1.5,0.1,3.1,0.1,4.7c0.1,3,0.1,6.1,0.2,9.2c0.2,6.1,0.3,11.9,0.4,16c0.2,27,1.9,58.2,1.9,78.7
		c-0.6-12.1-0.7-33.1-1.2-35.4l0,5.6c0.2,12.6,0.4,32.6,1,40c0-7,0.2-7.4,0.3-9.8c0.2,5.6,0.4,6.5,0.6,13.5
		c0.1,5.1,0.2,10.5,0.3,14.6c0,2,0,3.7,0,5c0,1.2-0.1,1.9-0.1,1.9c-0.2-5.6-0.3-11.7-0.4-16.8c-0.3-1.9,0.1,16.3,0.1,22.4
		c0.4-10.7,1.4,17.7,1.1-11.2l0.5,15.8c0.7,9,0-23.4,0.1-29.7L42,444.9c0,1.3,0.7,1.9,2,1.9l43.9-1.2c1.3,0,1.9-0.7,1.9-2l-2.3-87.3
		c0-0.8,0-2.4,0-5.5c-0.1-4.6-0.2-6.9-0.3-8.8c0-1.2-0.1-2.2-0.1-3.1l-0.3-10.3l10-0.3c0.8,0,1.5,0.1,2.1,0.1
		c2.2,0.1,4.2,0.3,11.1,0.1c13.2-0.4,13.9-0.7,13.4-0.9l7.3-0.2h0.3c4.3,0,10.5,0,17.7-0.1c3.6-0.1,7.5-0.1,11.5-0.2
		c2,0,4.1-0.1,6.2-0.1c1.2,0,2.7,0,3.2-1.3c0.2-0.6,0.2-1.2,0.2-1.9L169.8,322.3z"/>
	<path class="st0" d="M56.3,171c3.2-0.3,18.1-0.7,26.1-0.9c1.9-0.3-10.7-0.1-14.9-0.1l-5.6,0.2C47.9,170.7,47.4,171.1,56.3,171"/>
	<path class="st0" d="M168.2,212.3l0.1,2.2l0,1.6c0,0.7-0.1,1.3-0.3,1.8c0.1-0.1,0.5-1.1,0.3-2.9c0-1,0-2.3,0-3.8
		c-0.1-3-0.1-6.7-0.2-10l-0.3-1.9l0.3,8.6L168.2,212.3z"/>
	<path class="st0" d="M39,340c0.2,16.8,0.2,34.4,0.7,54.5c0.9,13.5-0.2-24.2,0.5-17.7c-0.3-16.3-0.2-22.8-0.7-40L39,340z"/>
	<path class="st0" d="M249.8,305.5c-0.3,1.4-0.4,2.5-1,5.3c-0.2,1.7,0.5-0.1,0.9-2.2C249.8,307.6,250.6,303,249.8,305.5"/>
	<path class="st0" d="M264.8,321.4c0.5,4.2,0.8,4.3,0.8,1.6c-0.3-1-0.8-5.4-0.9-7.8c-0.3-0.5-0.1,3.2-0.1,4.5L264.8,321.4z"/>
	<path class="st0" d="M261.6,282.1l-0.6-5.1c-0.2,0.2,0.1,2.7,0.2,4.6L261.6,282.1z"/>
	<path class="st0" d="M251.1,371.2c-4.1,0.4,7.2,0.7,5.3,1.1c4.9,0.3,6.8,0.7,12,0.8l-0.9-0.6C262.4,372.1,257.1,371.4,251.1,371.2"
		/>
	<path class="st0" d="M295.3,448.2c-5-0.1,0.5,0.4,6.8,0.8c3,0,16.2,0.5,8.6-0.1C306.8,448.7,303.5,448.6,295.3,448.2"/>
	<path class="st0" d="M326.3,425.1c-3.5-26.4-6.5-55.8-10.7-87.4c-1.6-13.4-3.6-31-5.7-48.6c0,0,0.1,0,0.1,0
		c-0.1-0.4-0.1-0.7-0.2-0.7c-1.1-13-5.5-43.3-5.2-46.4l-0.5-3.2c-2-15.8,0.3,0-0.7-9.1c-1.9-14.6-3.6-33.9-5.2-41.4
		c-0.1-1.2,0.1,0.4,0-0.8l-1.6-11.9c-0.1-0.6-0.5-1.8-1-2.2c-0.5-0.4-0.5-0.5,0.1,0.7c-0.5-1.1-1.7-1.6-2.9-1.6
		c-2.2-0.1-3.9-0.1-6.7-0.3c-9.9-0.5-1.2-0.4-4.7-0.7c-12.5-0.6-25.8-1.2-39-1.8l-4.9-0.3c-0.3,0-1-0.1-1.6-0.1
		c-0.6,0-1.2,0.2-1.7,0.5c-1,0.6-1.5,1.9-1.7,3c-0.8,3.2-1.5,6.3-2.2,9.4c-1.5,6.2-3,12.3-4.4,18.1c-0.1,0-0.6,1.6-1.3,4.3
		c-0.7,2.7-1.6,6.4-2.5,10.3c-1.9,8.1-4.1,17.5-5.4,23.1c-5.6,22.2-10.7,48.3-15.1,65.2c2-10.1,6.4-27.4,6.5-29.4l-1.2,4.6
		c-2.5,10.4-6.6,26.9-7.7,33.2c1.5-5.7,1.8-6.1,2.4-8c-1,4.6-1,5.5-2.3,11.3c-1,4.2-2,8.6-2.8,12c-0.8,3.4-1.4,5.7-1.6,5.6
		c1-4.7,2.2-9.7,3.2-13.9c0.1-1.6-3.4,13.4-4.7,18.4c2.7-8.7-2.5,14.9,3.5-8.9l-2.9,13.1c-1.3,7.5,5-19.2,6.5-24.3l-28.4,122.1
		c-0.1,1.3,0.4,2,1.5,2l43.5,2.2c1,0.1,1.7-0.6,2.1-1.9l5.7-28.4l35.8,1.8c0.6,0.1,2,0.2,4.6,0.4c3.9,0.2,5.9,0.3,7.5,0.3
		c1,0,1.8,0,2.6,0.1l2.8,0.1l1.5,14.5c0,0.4,0,0.7,0,1.1c0,2.2-0.1,3.6,0.5,10.1c0.2,1.5,0.2,2.6,0.5,4c0.2,0.6,0.6,1.1,1.1,1.4
		c0.5,0.3,1,0.3,1.5,0.3c4.8,0.1,5.1,0,4.8-0.2l6.2,0.3c0.1,0,0.2,0,0.3,0c3.7,0.3,9,0.7,15.1,1.1c3.1,0.2,6.4,0.4,9.9,0.6
		c1.7,0.1,3.5,0.2,5.3,0.3c0.9,0,1.7,0.3,2.8,0c1.1-0.2,1.3-1.7,1.2-2.5C328,439.5,327.1,432.1,326.3,425.1 M235,371.5l8.4-39.6
		c0.1-0.2,0.2-0.7,0.5-1.6c0.3-1.4,0.4-2,0.5-2.6c0.1-0.4,0.1-0.7,0.1-0.9l1.3-6c0.5-1,0.8-1.2,1.4-3.8c0.7-3.9,0.5-4.2,0.3-4
		l0.5-2.1c1.2-3.7,3.3-12.4,4.9-19.8c1.6-9.2,4.5-19.4,6.3-30.4c0.3-1.8,0.7-3.8,1-5.9c0.4,5.2,1.7,13.1,1.1,14.2l0.2,1.1
		c0.6,5.6-0.3,0-0.1,3.3c0.6,5.1,0.6,12,1.5,14.6c0,0.4-0.1-0.1-0.1,0.3l0.5,4.2c0.2,0.3,0.4,1.1,0.5,0.4c0.1,1,0.3,1.8,0.4,3.2
		c0.3,3.5-0.3,0.4-0.3,1.7c1,8.8,2,18.8,2.5,27.2c-0.5,0,0.5,9.7,0.9,13.7c0.3,8.1,2.2,17.4,2.3,23.5c-0.7-3.6-0.9-9.9-1.3-10.6
		l0,1.7c0.2,3.8,0.6,9.8,1.2,12c0-2.1,0.2-2.3,0.3-3c0.3,1.7,0.4,1.9,0.7,4c0.1,0.8,0.2,1.5,0.2,2.3c0,0.4,0.1,0.7,0.1,1.1l0,0.5
		l0,0.2c0,0.5-0.1,0.8-0.2,0.7c-0.1-0.3-0.1-0.5-0.1-0.9c-0.1-0.9-0.1-1.7-0.2-2.5c-0.2-0.2-0.1,0.7-0.1,1.9c0.1,0.9,0,0.7,0,0.9
		c0,0.1,0,0.3,0,0.4c-0.1,0-0.1,0-0.2,0c0.6,0.3,0.7,0.5,0.5,0.7c-0.1,0.2-0.5,0.3,1,0.6c0-0.3,0-0.8,0-1.5l0.2,1.7l-1.5,0
		c-0.9,0.2,0.1,0.3,2.1,0.6c-0.1-1.8-0.2-4-0.2-5.5c0-0.3,0-0.5,0-0.7l0.6,6.6L235,371.5z"/>
	<path class="st0" d="M226.8,194.9c0.4-2.8,3.3-15.1,4.8-21.6c0.1-1.6-2.5,8.8-3.4,12.2l-1,4.6C224.7,201.7,224.9,202.2,226.8,194.9
		"/>
	<path class="st0" d="M301.4,206.8l-0.5-1.6l1.9,14.6C302.9,219.4,302.1,212.3,301.4,206.8"/>
	<path class="st0" d="M185.7,380.1c3.2-13.5,4.7-18.8,7.9-33.1l-1.1,2.6c-3.5,13.8-7.2,28.4-11,45
		C179.4,405.8,186.5,374.6,185.7,380.1"/>
	<path class="st0" d="M401,217.3c0,1.1,0.1,2,0.1,4.2c0.2,1.4,0.4-0.1,0.5-1.8C401.4,218.9,401.3,215.3,401,217.3"/>
	<path class="st0" d="M460.1,251.1c0.1-0.7,1.3-3.7,1.7-5.4c-0.2-0.4-1,2.1-1.4,2.9l-0.4,1.1C458.9,252.5,459.1,252.7,460.1,251.1"
		/>
	<path class="st0" d="M457.4,222.9c-0.8-1-1.6-1.9-2.5-2.8c-0.1,0.2,1.2,1.5,2,2.7L457.4,222.9z"/>
	<path class="st0" d="M412.7,268.8c-3.2,0.6,5.7,0.4,4.1,0.9c3.8,0.1,5.3,0.3,9.4,0.2l-0.8-0.5C421.6,269.2,417.4,268.8,412.7,268.8
		"/>
	<path class="st0" d="M456,336.7c-1.6-2.7-1.6-2.4-0.7-0.8c0.9,1.7,2.3,5,3.1,8.7c0.3,0.9,0.6,2.6,0.8,4.5c0.2,1.9,0.2,4,0.3,5.8
		c0.1,3.5,0.2,5.3,0.3,0.5c0-2.5,0-4.8-0.3-7.7C459,344.8,458.3,341.2,456,336.7"/>
	<path class="st0" d="M509.2,424.1c-0.1-9.9-0.2-20-0.3-30.2c0-8.7,0-18.8,0-29.6c0-5.4,0.1-10.9-0.1-16.6c-0.3-5.7-1.1-11.4-2.5-17
		c0,0,0.1-0.1,0.1,0c-0.2-0.5-0.3-0.9-0.3-0.9c-1.1-4.5-3.2-10.6-6.4-16.7c-1.6-3-3.5-6.1-5.6-9c-1-1.5-2.1-2.9-3.2-4.2
		c-0.5-0.6-1.2-1.5-1.6-1.9c-0.3-0.4-0.7-0.8-1-1.2c0.9-0.7,3.3-3.1,4.8-4.9c1.6-1.8,3-3.6,4.2-5.1c2.4-3.1,3.9-5.4,4.5-6.1
		c0.7-1.2,1.4-2.4,2-3.7c2.4-4.6,3.3-7,3.8-8.1c0.5-1.1,0.4-0.8,0.2-0.3c-0.4,1-1,3.2,1.2-2.4c3.5-9.1,5-20.4,4.7-30.4
		c-0.2-10.1-2.6-18.8-4.5-23.4c-0.5-1.5,0.2,0.5-0.3-1c-1.8-4.9-4.2-9.6-7-14c-0.7-0.8-2.6-3.3-1.3-1.1c-2-3-4-5.5-7.3-9.4
		c-4.4-4.8-4.8-4.9-4.2-4.6c0.5,0.4,1.8,1.5,0.2-0.2c-5.9-5.7-12.9-10.6-20.6-14.4c-7.7-3.8-16.2-6.3-24.8-7.4
		c-4.3-0.5-8.7-0.7-12.9-0.6c-4.2,0-8.4,0-12.5,0c-8.2-0.1-16.3-0.1-23.9-0.2c0-0.1-2.2-0.2-5.7-0.3c-3.6,0-8.4-0.1-13.7-0.1
		c-5.3,0-11.1,0-16.5,0c-1.6,0-3.1,0-4.6,0c-1,0.1-2,0.5-2.6,1.3c-0.6,0.8-0.7,1.7-0.7,2.8c0,2.5,0,4.8,0,6.8
		c-0.5,29.6,0.3,63.7-0.2,86.2c-0.3-13.3,0.1-36.2-0.2-38.8l-0.2,6.1c-0.2,13.8-0.5,35.7-0.1,43.9c0.2-7.6,0.4-8.1,0.6-10.7
		c0.1,6.1,0.2,7.1,0.2,14.8c0,5.6-0.1,11.5-0.1,15.9c0,2.2-0.1,4.1-0.1,5.4c0,1.3-0.1,2.1-0.2,2.1c-0.1-6.1,0-12.8,0-18.4
		c-0.3-2.1-0.4,17.8-0.5,24.5c0.7-11.7,0.9,19.4,1.4-12.2l0.1,17.3c0.4,9.8,0.6-25.6,0.9-32.5l-0.5,158.7c0,1.3,0.5,2,1.6,2h44.4
		c1,0,1.6-0.7,1.6-2l0.3-100c0.1-0.8,0.1-2.6,0.2-6c0-4.8,0-7.2,0-9.3c0.1,0,0.2,0,0.3,0c1.3,0,2.4,0,3.3-0.1H426
		c0.3,0,0.6,0,0.9,0.1c1.6,0.2,2.7,0.4,4.6,0.7c1.8,0.4,4.4,0.8,8.4,2.6c5.6,2.5,8.2,5.2,9.8,6.6c1.6,1.5,2,1.9,2.1,1.8
		c0,0,0,0,0-0.1c1.9,2.1,3.5,4.3,4.7,6.7c0,0,0,0,0,0c2.2,4.2,4.2,10.8,3.7,18.7c-0.2,15.8-0.3,36.2-0.4,54.4c0,4.3,0,8.6,0.1,13
		c0,2.2,0,4.4,0,6.6v3.4c0,0.7,0,1.4,0.1,2c0,0.7,0.6,1.2,1.2,1.4c0.6,0.2,1.3,0.1,2,0.1l1.7,0l3.4,0c2.3,0,4.6,0,6.9,0
		c4.6,0,9.4,0,14.1,0c4.8,0,9.6,0,14.5,0l1.8,0h0.9c0.3,0,0.7-0.1,1.1-0.2c0.7-0.3,1.2-0.9,1.4-1.7c0.2-0.8,0.1-1.3,0.1-1.9
		C509.3,429,509.2,426.5,509.2,424.1 M400.2,270v-31.5c0-0.2,0.1-0.5,0.1-1.3c0-1.1,0-1.6-0.1-2.1c0-0.3,0-0.5-0.1-0.7v-4.8
		c0.3-0.8,0.6-1,0.6-3.1c-0.1-3.1-0.3-3.3-0.6-3.1v-1.7c0.1-0.8,0.2-1.9,0.3-3.2c0.1-1.4,0.2-3,0.3-4.8c0-1.6,0.1-3.1,0.1-4.7
		c0.6,0,1.3,0,1.9,0c7.1-0.3,15.4,0.4,24.1,0c1.9,0,4,0.1,6.3,0.1c2.3,0,4.6,0.2,7,0.8c0,0,0,0.1,0,0.1c0.1,0,0.2,0,0.2,0
		c1.7,0.6,4.4,1.3,6.7,2.5c2.3,1.1,4.1,2.5,4.2,3l0.7,0.5c3.2,2.6-0.1,0.2,1.6,1.9c1.5,1.3,2.9,3,4,4.6c1.1,1.6,2,3.1,2.7,3.8
		c0.1,0.3-0.1-0.1,0,0.2c0.5,0.9,0.9,1.8,1.3,2.8c0.2,0.1,0.6,0.7,0.6,0.1c0.2,0.7,0.6,1.2,0.8,2.3c0.6,2.6-0.2,0.4-0.1,1.3
		c0.7,3.2,0.9,6.8,0.4,10.2c-0.5,3.4-1.6,6.7-3.3,9.3c-0.2-0.1-1.2,1.4-2.5,3c-1.3,1.7-3,3.5-4.1,4.5c-2.4,1.9-4.9,3.8-7.5,5.2
		c-2.6,1.4-5.4,2.3-7.6,2.4c2.6-0.6,6.9-1.9,7.2-2.5c-0.4,0.1-0.8,0.2-1.2,0.3c-2.5,1-6.7,1.5-8.3,1.9c1.5,0.1,1.6,0.2,2.2,0.3
		c-1.2,0.2-1.4,0.4-2.9,0.6c-2.3,0.1-5,0-5-0.3c1.3-0.1,2.7,0,3.9,0c0.5-0.3-3.8-0.3-5.2-0.4c2.5,0.7-4.1,1,2.6,1.4l-3.7,0.1
		c-2.1,0.5,5.1,0.5,6.8,0.8c-0.2,0-0.5,0-0.7,0H400.2z"/>
	<path class="st0" d="M430.6,159c2-0.3-11.7-0.4-16.3-0.5l-6.1,0.1c-15.3,0.1-15.8,0.4-6.1,0.6C405.6,158.9,421.9,158.9,430.6,159"
		/>
	<path class="st0" d="M514.1,234.5c0.4,6.4,0.1,12.9-1,19.3c0.1-0.2,0.6-2.7,1-6c0.3-3.3,0.5-7.5,0.4-11.2L514.1,234.5z"/>
	<path class="st0" d="M352.6,313.5L352,317c-0.3,18.3-0.7,37.7-0.8,59.6c0.5,14.8,0.5-26.5,0.9-19.3
		C352.3,339.5,352.6,332.3,352.6,313.5"/>
	<path class="st0" d="M624.1,306.7c-2.3-3.5-5.2-7.9-9.2-14.1c-4.8-7,0.1,0.9,6,10c0.7,1.1,1.9,2.8,3.2,4.8
		c2.6-3.8,6.2-8.8,8.3-11.8c1.8-2.6,2.1-3.2-1,1C629,299.9,626.9,302.8,624.1,306.7"/>
	<path class="st0" d="M716.7,177.6c-0.1-0.8-0.3-1.6-1-2.1c-0.6-0.5-1.4-0.6-2.3-0.7c-13.9-0.3-27.8-0.6-41.3-0.9
		c-1.7,0-3.4-0.1-5-0.1l-1.2,0c-0.3,0-1.2,0-1.7,0.2c-1.2,0.4-2.1,1.2-2.7,2c-2,2.7-3.9,5.3-5.8,8c-3.8,5.2-7.6,10.4-11.2,15.4
		c-0.1,0-0.7,0.7-1.8,2.2c-1.1,1.5-2.7,3.6-4.5,6c-3.2,4.4-7.6,10.4-12.1,16.5c-6.1-9.3-12.5-19-16.6-25.1
		c-2.7-4.2-5.4-8.4-8.2-12.7c-1.4-2.1-2.8-4.3-4.2-6.4l-2.1-3.2l-1.1-1.6l-0.5-0.8c-0.3-0.4-0.5-0.7-0.9-1.1
		c-0.7-0.7-1.6-1.3-2.8-1.6c-0.3-0.1-0.6-0.1-0.8-0.1l-0.5,0l-1,0l-3.9-0.1c-2.6,0-5.2-0.1-7.7-0.1c-5.2-0.1-10.3-0.2-15.3-0.2
		c-5-0.1-10-0.2-14.9-0.2c-1.3,0-2.6,0-3.8-0.1c-1,0-2,0-2.8,0.4c-0.8,0.4-1.4,1.3-1.5,2.1c-0.1,0.4-0.1,0.9-0.1,1.4l0,1.2l0,1.8
		c0,1.2-0.1,2.3-0.1,3.5c-0.2,9.2-0.4,17.7-0.7,25.2c0.1-4.5,0.1-9.7,0.2-15.2c0.1-5.6,0.3-11.3,0.4-16.7c0-1.2,0.3-2.1,1-2.9
		c0.7-0.8,1.7-1.1,2.7-1.1c1.4,0,2.8,0.1,4.2,0.1c2.3,0,4.4,0.1,6.2,0.1c3.6,0.1,6.2,0.1,7.1,0l-8.2-0.3c-2.3-0.1-4.8-0.1-7.4-0.2
		l-1.5,0c-0.6,0-1.2,0-1.7,0.2c-1.1,0.3-2,1.2-2.4,2.2c-0.2,0.5-0.3,1.1-0.3,1.8l0,1.6l-0.1,2.1c-0.2,5.5-0.3,11.3-0.5,16.8
		c-0.3,11-0.5,21.1-0.5,26.6c0.5-10.2,0.7-10.9,0.9-14.3c-0.1,8.2,0,9.6-0.2,19.9c-0.2,7.5-0.4,15.4-0.6,21.4
		c-0.1,3-0.2,5.5-0.3,7.3c-0.1,1.8-0.2,2.8-0.2,2.8c0.2-8.3,0.4-17.1,0.6-24.7c-0.2-2.8-0.9,23.9-1.2,32.8
		c1.1-15.7,0.3,26.1,1.8-16.3l-0.4,23.3c0.1,13.2,1.4-34.4,1.9-43.6l-5.3,213.9c0,1.3,0.5,2,1.5,2l44.3,1c1,0,1.6-0.6,1.6-1.9
		l3.6-150.3c0.1-1.1,0.2-3.6,0.3-8.1c0.1-6.7,0.2-10.1,0.2-13c0-1.8,0-3.2,0-4.5l0.6-24.3l3.1,4.7c1,1.7,1.6,2.9,2.4,4.2
		c1.4,2.4,3.2,5.4,7.7,12.4c10.7,16.2,11.5,17,11.2,16.1l6.4,9.8c2.4,3.7,5.3,8.4,8.7,13.8c5.8-7.9,12.9-17.5,20.3-27.6
		c6.9-9.5,14.3-19.6,21.4-29.3c-0.1,2.6-0.1,5.2-0.2,7.7c-0.6,45.7-2.3,97.1-3,151.9c-0.1,6.1-0.3,12.7-0.5,19.7
		c-0.1,3.5-0.2,7.1-0.3,10.8c0,1.8-0.1,3.7-0.1,5.6l0,1.5c0,0.6,0,1.2,0.1,1.8c0.1,0.6,0.5,1.1,1,1.4c0.5,0.3,1.1,0.3,1.7,0.4
		c13.8,0.3,28.6,0.7,43.3,1.1c0,0,0.1,0.1,0,0.1c1,0,1.5-0.2,1.5-0.2c0.9-0.2,1.5-1.2,1.6-2.1c0.1-0.5,0.1-1,0.1-1.5
		c0-0.4,0-0.8,0-1.2c0-1.6,0.1-3.4,0.1-5.2c0.1-3.6,0.2-7.5,0.3-11.6c0.1-8.2,0.3-17.1,0.5-25.4c0.3-16.7,0.6-31.2,1-33.9l0-5.5
		c0.5-27.4,0.3,0,0.7-15.7c0.4-25.3,1.6-58.8,1.3-71.8c0.1-2.1,0.1,0.7,0.1-1.4l0.3-20.5c-0.1-1.4-0.2-5.5-0.4-2.1
		c0.1-4.8,0-8.9,0.2-15.7c0.3-17.1,0.3-2,0.6-8.2c0.1-8.6,0.3-17.4,0.4-26.4c0.1-4.5,0.2-9,0.2-13.5l0.1-6.8
		C716.7,180.4,716.7,179.6,716.7,177.6"/>
	<path class="st0" d="M649.6,191.2c1.3-2,5.2-7.5,9.5-13.6c0.6-0.8,1.1-1.6,1.7-2.4c0.8-1,2.2-2.2,4.1-2.4c0.2,0,0.5,0,0.6,0l0.4,0
		l0.7,0l1.4,0c1,0,1.9,0,2.9,0.1c3.8,0.1,7.3,0.2,10.2,0.3c1.4-0.1-2.6-0.3-7.6-0.5c-2.5-0.1-5.3-0.2-7.9-0.3
		c-0.9-0.1-2.4,0.3-3.3,0.8c-1,0.6-1.5,1.2-2.1,1.9c-0.7,0.9-1.2,1.6-1.7,2.3l-4.7,6.7C641.9,200.9,641.8,201.7,649.6,191.2"/>
	<path class="st0" d="M714.7,331c0.2-0.7,0.4-13,0.6-22.6l-0.2-2.7L714.7,331z"/>
	<path class="st0" d="M534.6,341.8c0.6-23.9,1.2-33.5,1.7-58.8l-0.7,4.8c-0.8,24.6-1.9,50.6-2.6,80
		C533.2,387.6,534.4,332.2,534.6,341.8"/>
	<path class="st1" d="M165.7,627.5c-1.3-1.4-2.7-2.8-4.1-4.1c-0.5-0.5-1.9-1.9-5.1-4.6c-4.4-3.4-6.8-4.8-8.8-6
		c-1.5-0.8-2.6-1.5-3.6-2c-3.3-1.8-6.7-3.4-10.3-4.9c-0.8-0.4-2.9-1.3-6.4-2.6c-1.4-0.5-2.9-1.1-4.4-1.7c-4.5-2.1-4.7-2.5-15.2-6.7
		c-6.3-2.5-10.1-3.9-12.3-4.6c-2.2-0.8-2.8-1-2.9-0.9c0,0,0,0.1,0.1,0.2c-3.1-1.3-5.8-2.8-8.3-4.2c-2.1-1.4-4.7-3.2-7.1-5.7
		c-2.5-2.5-4.7-5.9-6.4-9.8c-3-7.8-5-18.3-0.8-27.6c2-4.6,5.1-8.8,9.2-11.8c4-3,9-4.6,13.8-4.8c8.8-0.7,17.9,4.3,23,12
		c2.6,3.9,4,8.5,4.6,13.3c0.7,4.8,1.4,9.7,2,14.7c0.7,5,1.4,10.1,2.1,15.2c0.1,0.8,0.2,1.6,0.8,2.2c0.6,0.6,1.4,0.5,2.2,0.4l4-0.5
		c2.6-0.3,5.1-0.7,7.7-1c5.2-0.7,10.4-1.4,15.6-2.1c2.6-0.4,5.3-0.7,7.9-1.1l4.1-0.6c0.8-0.1,1.7-0.2,2.2-0.8
		c0.6-0.7,0.5-1.5,0.4-2.3c-0.2-1.5-0.4-3-0.6-4.5c-0.6-4.7-1.2-9.8-1.9-15.2c-0.7-5.3-1.2-11-2.4-16.8c-2.3-11.6-7.8-23.5-16.2-33
		c0,0,0-0.1,0.1-0.1c-0.4-0.5-0.7-0.7-0.7-0.7c-3-3.6-7.5-8-13-11.9c-5.5-3.9-12.1-7.3-18.7-9.5c-13.2-4.6-25.5-3.6-27.7-3.8
		c-1.5,0.1-3,0.3-4.5,0.6c-5.6,0.8-8.4,1.7-9.6,2c-1.2,0.3-1,0.2-0.4,0c1.1-0.4,3.4-1.3-2.9,0.6c-5,1.7-10.3,4.1-15.1,7.2
		c-4.9,3.1-9.4,6.8-13.3,10.7c-7.8,7.8-12.6,16.6-14.5,21.6c-0.7,1.5,0.2-0.5-0.6,1c-2.3,5.2-4,10.7-5,16.4
		c-0.1,1.1-0.4,4.6,0.2,1.8c-0.6,3.9-0.8,7.4-0.8,13c0.2,7.1,0.5,7.5,0.2,6.8c-0.1-0.7-0.4-2.5-0.3,0c1,8.9,3.1,18,6.7,26.6
		c3.6,8.7,8.7,16.9,15.3,23.8c6.5,6.9,14.4,12.4,22.6,16.5c4.1,2.1,8.3,3.7,12.3,5.4c4,1.7,8,3.4,11.8,5c0,0.1,2.1,1.1,5.7,2.7
		c3.6,1.5,8.5,3.6,13.8,5.8c5.4,2.3,11.2,4.4,15.6,7.8c4.5,3.3,7.4,7.5,8.4,11c1,3.4,1.2,7.5,0.6,11.3c-0.5,3.8-1.9,7.5-4,10.9
		c-2,3.4-4.7,6.4-7.9,8.5c-3.2,2.1-6.9,3.3-10.7,3.7c-3.8,0.4-7.5-0.2-10.9-1.6c-3.4-1.4-6.4-3.6-8.8-6.1c-5-5-7.3-11.4-7.9-17.2
		c0.5,3.4,1.5,7.4,3.6,11c2,3.6,4.9,6.8,8.1,9.1c3.1,2.4,6.5,3.7,9.1,4.2c2.6,0.6,4.6,0.4,5.2,0.3c-2,0-4-0.3-5.9-0.9
		c-6.5-1.6-14.1-7.9-17.2-15.5c-1.7-3.8-2.1-7.6-2.6-11.5c-0.5-3.7-1-6.8-1.4-9c0.9,8.3,0.8,8.9,1,11.7c-1-6.8-1.2-8.1-2.5-16.5
		c-0.2-0.8-0.6-1.6-1.3-2.1c-0.7-0.5-1.5-0.5-2.5-0.4c-5.8,0.7-11.5,1.5-15.8,2c-2.1,0.2-3.8,0.4-5.1,0.6c-1.2,0.1-1.9,0.2-2,0.1
		c6.7-1,14.1-1.9,20.3-2.7c2.2-0.6-19.8,2.3-27.2,3.2c13.1-1.1-20.9,3.7,13.9-0.5l-18.9,2.6c-10.1,1.7,25.4-2.8,34.5-3.7
		c0.2,0,0.4,0,0.6,0l-40.5,5.3c-1,0.1-1.5,0.7-1.6,1.7c0-0.2,0-0.3,0-0.5c-0.3,1.3-0.1,2.5-0.2,3.8c1.3,10,1.7,20.6,5.4,31
		c3.5,10.4,9.7,20.4,18.4,28.9c3.1,2.7,3.3,2.7,2,1.5c-1.3-1.3-4.1-4.1-6.7-7.3c-5.5-6.4-9.7-14.9-7.6-11.5
		c-4.8-8.6-6.7-15.3-8.1-22.1c-0.7-3.4-1.1-6.9-1.6-10.8c-0.4-3.3-1-7-1.4-11.1l2.1,15.7c1.8,13.6,6.6,25.6,14.5,36
		c7.9,10.4,17.6,18.3,29.2,23.7c11.6,5.4,24,7.2,37,5.5c13-1.7,24.5-6.5,34.4-14.5c9.9-7.9,17.3-18,22.2-30.1
		c4.9-12.1,6.5-25.2,4.6-39.3C179.1,648.4,174,636.6,165.7,627.5 M79.9,657.3L79.9,657.3C79.9,657.3,79.9,657.3,79.9,657.3
		C79.9,657.3,79.9,657.3,79.9,657.3 M79.3,657.1c-0.1,0-0.2,0-0.3,0C79.1,657.1,79.2,657.1,79.3,657.1"/>
	<path class="st1" d="M77.6,578.1c-0.7-0.7-2-2.1-3.1-3.8c-1.2-1.7-2.2-3.7-3-5.4c-0.7-1.7-1.2-3-1.3-3.3c-0.1-0.3,0,0.5,0.8,2.9
		c1,2.5,2.1,4.7,4,7.3c1.9,2.6,4.7,5.4,9.4,8.4c3,1.7,2.9,1.5,1.1,0.4C83.8,583.3,80.4,581.1,77.6,578.1"/>
	<path class="st1" d="M70.8,631.4l6.2,2.5c15.5,6.3,16.2,6.2,6.4,2c-1.9-0.6-6.9-2.6-12.6-5c-5.8-2.5-11.9-6-15.9-8.9
		c-1-0.6,1.6,1.5,5.2,3.7C63.8,628,68.4,630.3,70.8,631.4"/>
	<path class="st1" d="M58.1,488c-0.3,0.1-2.7,1.4-5.7,3.6c-3,2.1-6.5,5.1-9.4,8c-0.5,0.6-0.9,1.2-1.4,1.9
		C46.4,496.3,52,491.7,58.1,488"/>
	<path class="st1" d="M330.6,689c-0.3-0.2-0.7-0.4-1.2-0.5c-0.4-0.1-0.7,0-1-0.1c-0.7,0-1.4-0.1-2.1-0.1c-2.9,0.1-15.1-0.1-8.3,0.3
		c1.8,0,3.5,0.1,5.7,0.1c1.1,0,2.3,0,3.7,0.1c0.4,0,0.7,0,1.1,0l0.6,0c0.2,0,0.5,0.1,0.7,0.2c1,0.3,1.7,1.5,1.6,2.6
		c0,2.3,0.1,2.2,0.3,0.7c0-0.4,0.1-0.7,0-1.4C331.6,690.3,331.3,689.5,330.6,689"/>
	<path class="st1" d="M330.3,698.5l0.2-5.7c0-0.1,0-0.2,0-0.2c0.1-0.8,0.3-2-0.8-2.6c-1-0.4-2.1-0.2-3.3-0.4c-2.4-0.1-5-0.3-7.8-0.4
		c-11.3-0.5-26-1.1-39.1-1.5c-4.2-0.1-8.4-0.2-12.8-0.3c-4.1-0.1-8.3-0.3-12.6-0.4c0.3-8.5,0.6-17.3,0.9-26.3
		c0.3-9.3,0.6-18.8,0.8-28.5c0.5-12.6,1.1-29,1.7-45.4c0,0,0.1,0,0.1,0c0-0.4,0-0.6-0.1-0.6c0.8-12.2,1-40.3,1.9-43.4l0-2.9
		c0.4-14.7,0.3-0.1,0.7-8.5c0.3-13.6,1.5-31.7,1.1-38.6c0.1-1.1,0.1,0.3,0.1-0.8l0.2-11c-0.1-0.7-0.2-2.8-0.4-1c0-1.3,0-2.5,0-3.8
		c0-0.6,0.2-1.3-0.2-2.4c-0.3-1-1.6-1.6-2.6-1.6c-9.4-0.3-1-0.3-4.4-0.5c-5.9-0.1-12.1-0.3-18.3-0.4c-3.1-0.1-6.2-0.2-9.4-0.3
		l-4.7-0.1l-2.4-0.1l-1.2,0c-0.4,0-0.7-0.1-1.3,0.1c-1.1,0.2-1.9,1.1-2.2,2.2c-0.2,1-0.1,1.6-0.1,2.4c-0.1,1.5-0.1,3-0.2,4.6
		c-0.1,3-0.2,6-0.3,9c-0.2,5.9-0.5,11.7-0.7,17.2c-0.1,0-0.3,1.5-0.4,4c-0.1,2.6-0.3,6-0.4,9.8c-0.2,7.7-0.5,16.7-0.7,22
		c-1.1,21.2-0.9,46.1-1.9,62.1c0-9.6,0.8-26.1,0.5-28l-0.3,4.4c-0.4,9.9-1.2,25.7-1,31.6c0.4-5.5,0.6-5.8,0.8-7.6
		c0,4.4,0.1,5.2,0,10.7c-0.1,4-0.3,8.2-0.4,11.5c-0.1,3.2-0.3,5.4-0.4,5.4c0-4.4,0.3-9.2,0.4-13.2c-0.2-1.5-0.7,12.8-1,17.6
		c0.9-8.3,0.5,14.1,1.6-8.6l-0.2,12.5c0.2,7.1,1.1-18.3,1.5-23.2L208,730.4c0,1.2,0.4,1.9,1.4,1.9l105.8,3.1
		c0.6,0.1,1.9,0.1,4.3,0.3c3.6,0.1,5.4,0.1,6.9,0.1c0.6,0,1.1,0,1.5-0.1c0,0,0,0,0.1,0c0.2-0.1,0.3-0.2,0.5-0.3
		c0.1,0,0.1-0.1,0.1-0.2c0,0,0.1-0.1,0.1-0.1c0-0.1,0-0.1,0.1-0.2c0.1-0.3,0.2-0.6,0.2-1l0.4-14.6c0-0.2,0-0.4,0.1-0.6
		c0.3-2.3,0.6-3.3,0.8-9.8C330.7,698.5,330.5,698,330.3,698.5"/>
	<path class="st1" d="M213,500.7c-0.2-2.7,0.2-14.4,0.5-20.6c-0.2-1.6-0.7,8.3-0.9,11.6l0,4.4C212.3,507.1,212.6,507.6,213,500.7"/>
	<path class="st1" d="M261,521.9c0.2-0.4,0.4-7,0.6-12.2l-0.2-1.4L261,521.9z"/>
	<path class="st1" d="M209.4,677c0.5-12.8,0.9-17.9,1.2-31.5L210,648c-0.6,13.2-1.4,27.1-1.9,42.8C208.3,701.5,209,671.8,209.4,677"
		/>
	<path class="st1" d="M397.4,644.9c0,2.9,0.1,5.3,0.1,11.3c0.2,3.7,0.4-0.4,0.4-4.9C397.8,649,397.6,639.4,397.4,644.9"/>
	<path class="st1" d="M397.4,513.1c0-0.3-0.1-0.5-0.1-0.5c0.2-4.8,0.2-12.9,0.1-20c0-1.8,0-3.5,0-5.1c0-0.6,0.1-2-0.1-2.9
		c-0.2-1-1-1.7-1.8-1.8c-0.8-0.2-1.8-0.1-2.4-0.1c-0.5,0-1,0-1.5-0.1c-0.9,0-1.5-0.1-1.8-0.2l-2.4,0.1c-11.7,0,0-0.3-6.7-0.4
		c-5.2,0-11.2-0.1-16.6-0.1c-2.7,0-5.3,0-7.6,0c-0.7,0-1.3,0-1.9,0c-0.9,0-1.7,0.1-2.3,0.4c-0.7,0.3-1.2,0.9-1.4,1.5
		c-0.2,0.6-0.3,1.2-0.3,1.8c0,0.4,0,0.8,0.1,1.2c0,0.9-0.1-0.3-0.1,0.6l0.1,8.8c0.1,0.6,0.3,2.3,0.5,0.9c0,2,0.2,3.8,0.1,6.7
		c0,7.3-0.3,0.9-0.4,3.5c0.1,18.4,0.2,39.5-0.2,57.1c-0.3,0-0.4,5-0.4,11.2c0,6.1,0,13.3,0,17.5c-0.5,17,0.5,36.6,0,49.5
		c-0.3-7.6,0.1-20.8-0.3-22.3l-0.2,3.5c-0.1,7.9-0.4,20.5,0,25.2c0.2-4.4,0.4-4.7,0.6-6.1c0.1,3.5,0.2,4.1,0.3,8.5
		c0,3.2,0,6.6,0,9.2c0,2.6-0.1,4.3-0.3,4.3c-0.1-3.5,0-7.3,0-10.5c-0.3-1.2-0.3,10.2-0.4,14c0.7-6.7,0.9,11.1,1.4-7l0.1,10
		c0.4,5.6,0.6-14.7,0.9-18.6l-0.1,89.7c0,1.3,0.6,1.9,1.8,1.9h41.3c1,0,1.5-0.6,1.5-1.9l-0.1-40.6c0-0.5,0.1-1.5,0.1-3.4
		c0-2.9,0-4.3-0.1-5.6c0-0.8,0-1.4-0.1-1.9l0-12.8c0.3-2.2,0.6-2.7,0.6-8.3c-0.1-8.3-0.3-8.8-0.6-8.4l0-4.6
		c0.1-2.7,0.3-6.7,0.4-11.3c0.2-9.1,0.3-20.8,0.3-31.2c-0.3-19.6,0.3-41.6-0.1-65C397.1,539.3,397.2,526.2,397.4,513.1
		C397.3,513.1,397.4,513.1,397.4,513.1"/>
	<path class="st1" d="M350.2,560.3c-0.3-2-0.2-11.4-0.2-16.4c-0.3-1.2-0.4,6.7-0.5,9.4l0.1,3.5C349.7,565.5,350,565.8,350.2,560.3"
		/>
	<path class="st1" d="M363.9,481.3l-1.2,0.3l10.8-0.1C373.2,481.3,368,481.3,363.9,481.3"/>
	<path class="st1" d="M352.1,675.4l-0.5,2c-0.3,10.5-0.6,21.6-0.6,34.2c0.5,8.5,0.4-15.2,0.9-11.1
		C351.9,690.3,352.2,686.2,352.1,675.4"/>
	<path class="st1" d="M503.1,700.5c-0.8,0.4-2.3,1-4.1,1.5c-1.8,0.4-3.8,0.7-5.5,0.7c-1.7,0-2.9-0.1-3.2-0.1c-0.3,0,0.4,0.2,2.7,0.4
		c2.4,0,4.6-0.1,7.4-1c2.7-0.8,6-2.3,9.6-5.6c2.1-2.2,1.8-2.2,0.5-0.9C509.2,696.7,506.5,699,503.1,700.5"/>
	<path class="st1" d="M570.4,575.6c0.2-3.9,0.3-7.7,0.5-11.5c0.1-3.6,0.4-7.1,0.3-10.4c-0.1-6.6-1.1-12.2-2.1-15.7
		c-0.3-1.5,0.2,0.5-0.1-1.1c-1.2-5-2.9-9.9-5.1-14.5c-0.5-0.9-2.1-3.6-1.1-1.2c-1.6-3.2-3.2-5.8-6-10.1c-3.7-5.2-4-5.4-3.5-5
		c0.5,0.4,1.6,1.7,0.2-0.2c-5.1-6.3-11.4-11.9-18.6-16.4c-7.2-4.5-15.4-7.6-23.9-9c-8.4-1.4-17-1.5-25.2-0.2
		c-8.2,1.4-15.9,4.2-22.6,8c-0.1-0.1-2,0.9-5,2.8c-3,1.9-6.9,4.9-10.7,8.7c-3.8,3.8-7.5,8.4-10.4,13c-2.9,4.6-5.1,9.1-6.5,12.6
		c-2.9,6.9-4.8,14.5-5.5,22.3c-0.4,3.9-0.4,7.7-0.5,11.5c-0.1,3.8-0.2,7.5-0.3,11.2c-0.4,14.8-0.8,28.7-1.5,39.8
		c0.2-13.1,1.4-35.6,1.1-38.1l-0.4,6c-0.6,13.5-1.7,35.1-1.6,43.1c0.5-7.5,0.7-8,1-10.5c-0.1,6,0,7-0.3,14.6
		c-0.2,5.5-0.5,11.3-0.6,15.7c-0.1,2.2-0.2,4-0.3,5.3c-0.1,1.3-0.2,2-0.2,2c0.1-6,0.5-12.6,0.7-18.1c-0.2-2-1,17.5-1.3,24.1
		c1.1-11.5,0.2,19.1,1.8-12l-0.5,17.1c0.1,9.7,1.5-25.2,2-31.9l-1.6,42.5c-0.5,14.2,2.2,27.2,8.2,38.8c5.9,11.7,14.2,21.1,24.8,28.4
		c10.6,7.2,22.6,11.1,36,11.5c13.4,0.5,25.5-2.5,36.5-9c10.9-6.5,19.8-15.3,26.7-26.6c6.9-11.2,10.5-24,11-38.2l0.6-17.2
		c0-1-0.4-1.5-1.4-1.6l-9-0.3c-0.8-0.1-2.6-0.2-5.9-0.4c-5-0.2-7.4-0.2-9.5-0.2c-1.3,0-2.4,0-3.3,0l-13.5-0.5c-1,0-1.5,0.5-1.5,1.5
		l-0.2,5.9c-0.4,3.9-0.7,4.7-1.2,14.3c-0.7,6-2.4,9.3-3.3,11.1c-0.9,1.9-1.2,2.4-1.1,2.5c0,0,0.1,0,0.2-0.1c-1,1.6-2.2,3.2-3.6,4.8
		c-0.5,0.6-1.1,1.1-1.6,1.7c-1.7,1.6-3.9,3.3-6.8,4.6c-2.9,1.4-6.4,2.2-10.3,2.2c-3.8,0-8-0.8-11.7-2.8c-3.8-2-7.1-5.1-9.6-8.8
		c-2.5-3.7-4.1-8.1-4.7-12.7c-0.7-4.5-0.2-9.1-0.1-13.6c0.9-33.5,2.8-71.2,3.8-111.4c0.3-4.2,1.3-8.7,3.4-13
		c2.1-4.2,5.2-8.5,9.5-11.1c4.3-2.7,9.7-3.7,15.1-3.3c5.4,0.3,10.6,2.4,14.7,6c0,0,0,0.1-0.1,0.1c0.4,0.3,0.7,0.5,0.7,0.5
		c2.8,2.8,6.1,7.2,7.8,12.8c0.9,2.8,1.3,5.8,1.4,8.8c0,3-0.2,6.3-0.2,9.3c-0.1,3.1-0.2,6.1-0.3,8.9c0,1-0.1,1.9,0.3,2.6
		c0.5,0.8,1.3,1.1,2.1,1.1c1.4,0.1,2.7,0.1,4,0.2c4.4,0.2,7.6,0.4,8.6,0.6l4,0.1c20.1,0.6,0,0.3,11.5,0.8c2.5,0.1,5.1,0.2,7.7,0.3
		c1.4,0.1,2.9,0.1,4.3,0.2c1.1,0.1,2.1,0,3-0.7C570.1,577.7,570.4,576.7,570.4,575.6"/>
	<path class="st1" d="M481.3,480.4c5.6-1.4,11.9-1.9,16.3-1.9c1-0.1-1.9-0.3-5.8-0.1c-3.8,0.2-8.5,1-10.8,1.5c-2,0.5-4,1.1-6,1.8
		c-7.4,2.7-10.8,5-11.5,5.5c-0.7,0.5,1.4-0.6,5.9-2.6C471.1,483.8,475.7,481.7,481.3,480.4"/>
	<path class="st1" d="M570.9,575.7c0,1-0.3,1.9-0.9,2.6c-0.6,0.7-1.4,1.1-2.3,1.2c0.2,0,0.8,0,1.6-0.5c0.9-0.5,1.7-1.6,1.7-3.3
		c0.1-3.5,0.4-9.1,0.5-13.8l-0.2-2L570.9,575.7z"/>
	<path class="st1" d="M436.1,719.7c-4.4-6.2-7.8-14-6-10.9c-3.9-7.9-5.4-14-6.5-20.2c-1-6.2-1.5-12.6-1.1-21.9l-0.7,3.5
		c-0.4,9.1,0.4,18.5,3.2,28c2.9,9.4,7.8,18.7,14.9,27.1c2.6,2.7,2.8,2.7,1.7,1.5C440.5,725.5,438.3,722.8,436.1,719.7"/>
	<path class="st1" d="M639.7,682.6c-0.1-2.5-0.2-5.5-0.2-7.2c-0.1-1.9-0.2-2.2-0.2,1.5c0,2,0,3.8,0.1,6.1c2.9,0,6.6,0,12-0.1
		c6.4-0.2-0.7-0.4-8.7-0.5C642,682.5,640.9,682.6,639.7,682.6"/>
	<path class="st1" d="M716.2,481.6c0-2.1,0-4.3,0-6.4l0-3.4c0-0.8-0.1-1.6-0.4-2.2c-0.3-0.7-1-1.2-1.7-1.3c-0.7-0.2-1.6-0.1-2.3-0.1
		h-1.6h-3.2h-6.4c-17.1,0-34.1-0.1-49.4-0.2c0-0.1-2.2-0.2-5.7-0.3c-3.6,0-8.5-0.1-13.8-0.1c-10.7,0-23.3,0-30.7,0
		c-1.4,0-2.9,0-4.3-0.1c-1.2,0-2.1,0.2-2.9,0.9c-0.8,0.8-1.1,1.7-1.1,2.9c0,7.1,0,14.4,0,21.7c0,7.1,0.1,14.1,0.1,21
		c0.1,13.7,0.2,26.4,0,36.8c-0.3-13.4,0.1-36.4-0.3-39l-0.2,6.1c-0.1,13.8-0.4,35.9,0,44.1c0.2-7.7,0.4-8.2,0.6-10.8
		c0.1,6.2,0.2,7.2,0.3,14.9c0,5.6,0,11.5,0,16c0,2.2-0.1,4.1-0.1,5.5c0,1.3-0.1,2.1-0.2,2.1c-0.1-6.2,0-12.8,0-18.5
		c-0.3-2.1-0.3,17.9-0.4,24.6c0.7-11.8,0.9,19.5,1.4-12.3l0.1,17.5c0.4,9.9,0.6-25.7,0.9-32.6l-0.2,159.8c0,1.3,0.5,1.9,1.5,1.9
		h117.9c1,0,1.5-0.5,1.5-1.5v-27.8c0-0.8,0.1-2.7,0.1-6c-0.1-5.1,0.1-7.6-0.2-9.8c-0.2-0.8-1-1.1-1.6-1c-0.5,0-0.9,0-1.4,0h-22.4
		c-0.3,0-0.5,0-0.8-0.1c-3.3-0.3-4.6-0.5-13.7-0.5c-14.6,0.1-15.4,0.3-14.7,0.6h-8.5c-3.5-0.1-8-0.2-13.2-0.3
		c0.1-8.2,0.2-18,0.3-28.4c0-10.5,0.1-21.5,0.1-31.9c0-1.4,0-2.8,0-4.2c8,0,16.3,0,24.8,0c8.7,0,17.6,0.1,26.7,0.1
		c4.6,0,9.2,0,13.8,0c2.3,0,4.7,0,7,0l2,0c0.7,0,1.5-0.1,1.9-0.7c0.5-0.6,0.5-1.3,0.5-2.1l0-2c-0.1-9.5-0.3-19.1-0.4-28.9
		c0-2.2,0-4.5,0-6.8c0-1.2,0-2.5,0-3.8c0-0.7-0.1-1.5-0.7-2c-0.6-0.5-1.4-0.5-2.1-0.5c-5,0-10.3-0.1-15.8-0.1
		c-10.8,0-22.3-0.1-33.8-0.1c0,0,0-0.1,0-0.1c-0.6,0-0.9,0.1-0.9,0.1c-3-0.1-6.7-0.1-10.7-0.1c-3.7,0-7.8,0-11.9,0
		c0-7.9,0-16,0-22.4c0-6.8,0.1-11.8,0.4-13.1l-0.1-4.1c0-20.5,0.3,0,0.4-11.8c0-1.3,0-2.6,0-3.9c8.4,0.1,17.6,0.1,25.7,0.2
		c8.7,0,16.2,0,20.6-0.3c1.5,0-0.5,0.1,1,0.1l15.4-0.1c1-0.1,4.1-0.3,1.6-0.5c1.8,0,3.4,0,5.3-0.1c1.1,0,2.2,0,3.4-0.1
		c0.7,0,1.4-0.2,2-0.7c0.5-0.6,0.7-1.4,0.7-2.2c0-1.7,0-3.1,0-4.1c0-0.9,0-1.5,0-2c0-0.8,0.1-0.8,0.1-0.4c0.1,0.6,0.2,2.3,0.3,0
		C716.2,498.5,716.2,490.1,716.2,481.6"/>
	<path class="st1" d="M686.9,467.2c2.1-0.3-11.8-0.4-16.4-0.5l-6.2,0.1c-15.4,0.1-15.9,0.4-6.2,0.6
		C661.8,467.1,678.2,467.2,686.9,467.2"/>
	<path class="st1" d="M664.4,517.1l-19,0.1c0.5,0.2,9.7,0.2,16.9,0.2L664.4,517.1z"/>
	<path class="st1" d="M594.3,608.2l-0.5,3.6c-0.3,18.5-0.7,37.9-0.7,60c0.5,14.9,0.4-26.7,0.9-19.5
		C594.1,634.3,594.4,627.2,594.3,608.2"/>
	<path class="st0" d="M716,44.5c-9.8,14.8-19.5,29.5-29.3,44.4c-8.2,12.8-17,26.5-25.4,39.7c-9,14.3-18.6,29.8-26,42.3
		c-1.7,3-3.4,4.9-5.1,7.3c-0.9,1.4-1.8,2.9-2.7,4.4l-0.4,0.6l-0.2,0.3l0,0.1l-0.2,0.4l-0.4,0.8l-0.5,0.7l-0.2,0.4
		c-0.1,0.2-0.1-0.2-0.2-0.2c-0.3-0.5-0.6-1.1-0.9-1.6c-1.7-3-3.4-6-5.1-9.1c-2-3.4-3.9-6.7-5.8-10c0.1,0.2,0.3,0.5,0.3,0.6
		c-4-6.9-6.5-12.4-10.4-19.1c-0.1,0.1-0.7-0.9-1.1-1.4c-0.1-1.5-23.8-39.3-24.8-41.8c-0.4-0.7-0.9-1.4-1.3-2.1
		c-7.9-14.4-15.3-29.8-22.4-42c-1.8-2.5-3.7-5.4-5.3-7.5c-1-2.3-1.7-2.5-3.1-5.1c-1.5-3.9-2.9-6.7-3.7-7.9c-0.1,0-0.2,0.1-0.3,0.1
		c0.1,0.2,0.1,0.3,0.2,0.6c-0.1-0.2-0.2-0.4-0.3-0.5c-2.4,1-4.7,1.9-6.8,2.8c0.6,1,1.1,1.9,1.7,2.9c6.3,11.3,12.6,23,19,34.9
		c7.2,13.2,26.8,48.7,34.3,62.3c1.1,2,2.1,3.9,3.2,5.9c-1.7-3.3-1.7-3.3-3.5-6.6c5,7.9,9.6,15.1,14,22c-0.5-1.4-0.5-1.7-1.9-4.8
		l2,3.7c2.5,3,6.8,10.6,9.1,14.1c-0.7-0.6,0.8,2.3,2.2,4.8l-0.4-1.1c3.5,6.1,7.3,12.6,11,19c2.4-3.5,4.7-7.4,6.9-11
		c1.5-2.4,2.9-4.8,4.2-6.9c0.7-1.2,1.3-2,1.7-2.5l4.6-8.1c0,0.8,4.3-6.5,2.2-2.5c3.2-6.2,7.1-12.2,10.2-18.1
		c12.3-20.5,25.1-42.4,37.5-63.7l-0.4,0.5c4.3-7.5,8-14.2,13.6-23.1c3.7-6.3,8.4-14.3,10.7-18.3c0,0,0,0,0,0
		C716.3,44.7,716.1,44.6,716,44.5"/>
	<path class="st0" d="M583.4,34.6l0.8-0.1c-2.7,0.5-5.6,0.9-8.4,1.4c6.3-0.6,13.7-0.3,18.1-3.4c0.7,1.2,6.7,1.4,6.8,1.1
		c1.2-0.4,2.4-0.6,3.7-0.9c-0.8,0.1-1.7,0.3-2.6,0.5c0.9-0.2,1.7-0.3,2.6-0.5c8-1.6,16.9-1.1,25.8,0.2c2.5,0.4,7.1,0.9,11.7,1.7
		c4.6,0.8,9.2,1.8,11.7,2.4c0.7,0.2,1.5,0.4,2.2,0.5c-1.2-0.4-1.2-0.4-2.4-0.7c3.2,0.1,6,0.3,8.8,0.6c-0.4-0.3-0.5-0.5-1.5-1.1
		l1.4,0.4c1.4-0.3,4.3,0.4,5.7,0.5c-0.4,0.2,0.7,0.6,1.6,0.9l-0.3-0.3c3.5,1,7.8,1.9,10.9,2.9c0.4,0.1,0.7,0.3,0.9,0.5l3.1,0.7
		c-0.4,0.3,2.4,1.1,0.9,0.9c2.4,0.3,4.6,1.3,6.9,1.7c3.8,1.4,7.8,2.8,11.7,4.3c2,0.8,3.9,1.6,5.9,2.4l1.9,0.8l0.9,0.4
		c0.1,0,0.3,0.2,0.4,0.1l0.3-0.4c0.4-0.6,0.8-1,1.2-1.7l1-1.7L715,49c1.4-2.6,2.5-5.1,4.4-8.1c1.2-2.3,3.1-5.5,3.5-6.4
		c1.6-2.5,2.2-3.5,3.9-5.9c-0.4,0.6,1.6-2.3,0.8-1.1c-1.6,2.1-0.9,1.2-2.2,2.9l0,0c-2.4,3.1-4.7,6.2-7,9.2c-1.2,1.5-2.4,3.1-3.5,4.6
		l-1.8,2.3l-0.9,1.1l-0.1,0.3c-0.1,0.1-0.1,0.3-0.3,0.2l-0.4-0.2c-1.1-0.6-2.3-1.3-3.4-1.9c-2.4-1.3-4.9-2.7-7.4-3.8
		c-5.4-2.5-11.3-4.7-16.2-6.1c-1.2-0.3-1.9-0.9-2.8-1.5c-4.4-1.4-10-3.3-15.2-4.4c0.1,0,0.2,0.1,0.2,0.1c-2.7-0.7-4.6-1.6-7.3-2.1
		c0,0.1-0.4,0-0.6,0.1c-0.2-0.4-4.2-0.9-8.2-1.2c-4.1-0.3-8.2-0.5-8.7-0.7l-0.9,0c-5.6-1-11.5-2.6-16.5-2.7
		c-1.1,0.2-2.3,0.5-3.2,0.9c-0.9-0.3-1,0.3-2.1,0.2c-2.7-1.3-4.2-0.7-2.9-0.3c-2.2,0.3-4.4,0.2-6.4,0.4c-0.9,0.1-1.8,0.3-2.7,0.5
		c-0.8,0.2-1.2,0-1.6-0.2c-2,0.3-1.4,0-3.5,0.1c-0.5-0.4-5.1,1.3-5.7,1.3l0.3-0.1c-2.4,0.2-4.1-0.2-6.4,0.3
		c-1.6,0.3-3.3,0.6-4.9,0.9c-1.6,0.4-3.3,0.9-4.9,1.3c-3.3,0.8-6.4,2-9.3,2.9c0,0.3,1.2-0.5,1.4-0.1c-3.4,1-6.8,2.1-10.2,3.4
		c-0.6,0.2-1.4,0.4-1.7,0.5c-1.1,0.4-0.6,0.4-1.3,0.7l-0.2-0.1c-1.1,0.7-1.7,0.6-2.7,1.2c0,0.1-0.4,0.3-0.8,0.5
		c-0.1-0.2-1.1,0.6-1.1,0.4l0,0c-0.2,0.1-0.4,0.2-0.7,0.3c-0.4,0.3-4,2.8-4.5,3.1l-0.2,0.1c-0.6,0.3-0.8,0.5-0.4,0.4l-0.7,0.4
		l0.1-0.1l-0.7,0.4c-0.1,0.1-0.3,0.1-0.1,0c-0.4,0.3-0.8,0.5-1.2,0.8c1.1-0.6,2.5-1.3,3.7-1.8c-0.5,0.3-1.4,0.7-1.9,1
		c-0.7,0.3-1.9,0.9-2.9,1.5c-0.2,0.1-0.3,0.3-0.8,0.6c-0.3,0.1-0.5,0.3-0.9,0.6c0.7-0.5,0.9-0.6,1.3-0.9c-0.1,0-1.1,0.7-1.5,0.9
		c-0.4,0.3-1,0.6-1.6,1.1c0.2-0.2-0.5,0.3-0.8,0.5c-0.4,0.2-0.6,0.4-0.5,0.3c-0.1,0.1,1.5-1,1-0.6c-0.6,0.4-0.9,0.6-1.3,0.8
		c0,0,0.3-0.2,0,0c-0.4,0.3-0.5,0.3-1.1,0.8c0.2-0.1,0.3-0.2,0.4-0.3c-0.6,0.4,3-2.1,2.3-1.6c0.2-0.1-3.2,2.2-2.8,1.9
		c0.3-0.2-0.2,0.2,0.1-0.1l0.4-0.3c0.5-0.3,0.7-0.4,0.5-0.3c-0.8,0.5,2.3-1.6,1.6-1.1l0.3-0.2c-0.5,0.3-0.7,0.5-1.4,0.9
		c-0.4,0.2-0.5,0.4-0.7,0.5l-0.1,0.1c-0.3,0.2-0.8,0.5-0.6,0.4c2-1.3-1.3,0.8,0.7-0.4c-0.9,0.5,0.3-0.2,1.2-0.7
		c0.3-0.2,0.7-0.4,1.1-0.6c0.6-0.3,0.3-0.2,0.4-0.3c0.3-0.2,0.9-0.5,0.8-0.4c0.4-0.3,0.7-0.4,1.2-0.7c0.5-0.3,0,0,0.3-0.2
		c0.7-0.4,1.7-0.9,2.2-1.2c0.2-0.1,1-0.3,0.5,0c-1.1,0.5,0.3-0.3-0.8,0.2c0.5-0.1-1,0.5-1.1,0.7c0.4-0.1,1.1-0.5,1.7-0.8l-0.1,0
		c0.5-0.3,1.6-0.8,2.2-1c-0.1,0.1,0.2,0-0.2,0.2l0.7-0.3c0.1-0.1,0.2-0.1,0,0c0.3-0.2,0.7-0.3,1-0.4c0.1,0,3.8-2,3.7-1.9
		c0.5-0.2,0.7-0.2,1.2-0.5c0-0.1-5,2.5-4.3,2.1c0.2-0.1,1.7-0.8,3.2-1.6c1.5-0.7,3-1.4,3.2-1.3c0.4-0.2,0.9-0.4,0.8-0.4
		c0.7-0.2-0.1,0.2,0.4,0.1c0,0-0.1,0,0.1-0.1l0.5-0.1c1-0.5,2.6-1,3.7-1.6c-0.3,0.2-0.6,0.5-1.3,0.9l-0.1,0
		c-0.1,0.1-0.7,0.3-0.6,0.4c0.7-0.2,1.3-0.4,2-0.8c0.1,0,0.3,0,0.4,0c0,0,0,0,0,0c0.3,0,0.2,0,0.2,0.1c0,0,0,0,0,0
		c0.5,0.2,2.6-1,4-1.2c0.4-0.2,0-0.1,0.5-0.3c1.4-0.3,2.4-0.5,3.6-0.7c0.4-0.3,0.4-0.3-0.2-0.4l1-0.2c-0.8,0.7,2-0.1,1.1,0.6
		c0.3,0,1-0.1,1.5-0.3c0-0.1,0.1-0.3,0.8-0.5c1.1-0.1,0.8-0.1,1.7-0.1c0.2,0.1,0,0.2,0,0.4c1.2-0.5,1.2,0.1,2.4-0.2
		c0.8-0.2,2.3-0.5,2.2-0.8C583.4,34.1,583.5,34.3,583.4,34.6"/>
	<path class="st0" d="M539,48.3c0,0,77.8-50.1,172.4,4l16.3-24.7c0,0-102.9-58.3-206.4-2.3"/>
	<path class="st0" d="M668.2,49.6c1-0.4,0.3-1.7-0.8-1.9c-0.7,0.5-2.9,0.9-1.7,1.9C666.3,49.7,666.9,49.3,668.2,49.6"/>
	<path class="st0" d="M677.3,86.9c0.4-0.6,0.9-1.2,1.2-1.9c-0.4-1.8-3.7,0.5-4.9,0c4.6-3.2,7.6-8.5,7.6-14.5
		c0-5.5-2.5-10.3-6.5-13.6c0.1-0.2,0.1-0.5-0.1-0.9c-0.5-0.3-0.7-0.4-1-0.4c-0.2,0-0.3,0-0.4,0c-0.6-0.4-1.3-0.8-2-1.1
		c0.1-1.1,0.4-2.3-0.7-2.7c-1.7-0.3-2.1,0.7-2.2,1.6c-0.3-0.1-0.5-0.2-0.8-0.2c-1.1-1.9-4.8-3.6-8.3-2.9c-3.5,1.7-9.2,2.1-11.4,7.2
		c-1.6,1.4-3.6,3.6-4.6,6.3l-0.4-0.1c0.1,0.1,0.2,0.2,0.3,0.2c-2.6,1.7-0.4,7.1-2.9,7.7l0.3,0.5c0.5,2.8-1,0.1-1.4,1.8
		c0.6,2.5-0.1,7,2.7,7.3c0,0.3-0.3,0.1-0.3,0.3c0.4,0.6,1,1.2,1.5,1.7c0.6-0.2,1.3-0.2,1.7-0.8c0.2,0.4,1,0.4,1.2,1
		c1,1.3-0.8,0.9-0.8,1.7c3.3,3.2,7.5,5.8,11.3,8.2c-0.7,2,4.8,3,7.1,2.7c4.9,1.8,9.1-3.4,12.5-3.5c-1.2,2.2-5.1,2.1-5.1,3.5l1.1,0.3
		c2.2-0.2,6.1-1.1,6.4-3.1c-1.5,0-1.9-0.6-2.5-1c0.6-0.8,0.4-1.3,1.3-2.1c1.2-1,2.7-2,3.4-1.2c-0.4,0.9-1.5,1.2-2.1,1.8
		c0.4,1.1,2.9-0.7,3.9-1.2C679.1,88.9,681.5,85.3,677.3,86.9"/>
	<path class="st0" d="M650.2,93.8c-0.9,0.8,0.9,2.3,1.5,3c0.4,0,0.7,0.1,1.1,0.1c2.6,0.5,3-0.7,1.8-1.9
		C653.7,95.8,651.3,94.7,650.2,93.8"/>
	<path class="st0" d="M638.5,79.2c-0.5-0.9-0.8-1.8-1.2-2.8c-0.7,0.2-0.3,1.7,0,2.8L638.5,79.2z"/>
	<path class="st0" d="M680.3,79c-1.1,1.7-2.4,1.7-3.5,3.5l1.8,1c2.1-1,4.7-2.5,5.7-5.3C683.1,75.8,681.8,80.7,680.3,79"/>
	<path class="st0" d="M605.1,67.5c1.1-0.4,0.3-1.7-1-1.9c-0.8,0.5-3.4,0.9-2,1.9C602.8,67.5,603.6,67.1,605.1,67.5"/>
	<path class="st0" d="M616,112.2c0.5-0.7,1.1-1.4,1.6-2.2c-0.2-1.5-2-0.4-3.6,0.2c-0.8,0.3-1.5,0.4-2,0.3c5.7-4,9.4-10.5,9.4-18
		c0-6.8-3.2-12.8-8-16.8c0.1-0.2,0.1-0.5-0.2-1c-0.6-0.4-0.9-0.5-1.2-0.5c-0.2,0-0.3,0-0.4,0c-0.8-0.5-1.7-1-2.6-1.4
		c0-1.2,0.3-2.3-1-2.9c-2.1-0.4-2.4,0.6-2.6,1.5c-0.3-0.1-0.6-0.2-1-0.3c-1.5-2-6-3.8-10.2-2.9c-4.4,1.9-10.9,2.8-13.8,8.6
		c-1.9,1.8-4.1,4.4-5.4,7.7l-0.4-0.1c0.1,0.1,0.2,0.2,0.3,0.2c-2.7,2.1-0.6,8.5-3.1,9.2l0.3,0.7c0.6,3.3-1,0.1-1.3,2.1
		c0.7,3,0.1,8.1,3.1,8.6c0,0.3-0.3,0-0.3,0.4c0.5,0.7,1.1,1.4,1.6,2.1c0.6-0.1,1.4-0.1,1.7-0.8c0.3,0.5,1.1,0.5,1.4,1.3
		c1.2,1.6-0.8,0.9-0.7,1.8c3.8,3.8,8.8,6.9,13.3,9.6c-0.7,2,5.7,3.2,8.3,2.9c5.7,1.8,10.7-3.6,14.6-4c-1.5,2.3-5.9,2.5-6,3.8
		l1.3,0.3c2.6-0.3,6.9-1.4,7.4-3.6c-1.6,0.1-2.1-0.5-2.8-0.8c0.7-0.9,0.6-1.4,1.6-2.3c1.5-1.2,3.2-2.3,3.8-1.6
		c-0.5,1-1.7,1.4-2.4,2.1c0.4,1.2,3.3-1,4.4-1.6C617.9,114.2,620.8,110.1,616,112.2"/>
	<path class="st0" d="M584.1,119.5c-0.9,0.8,1.2,2.4,1.9,3.2c0.4,0.1,0.8,0.1,1.2,0.1c3,0.7,3.3-0.6,1.9-1.8
		C588.2,121.8,585.4,120.5,584.1,119.5"/>
	<path class="st0" d="M569.3,102.6l1.2,0c-0.5-1-0.9-2.1-1.3-3.2C568.5,99.6,568.9,101.3,569.3,102.6"/>
	<path class="st0" d="M620.2,102.9c-1.3,2.1-2.7,2.3-4.1,4.4l1.9,1c2.4-1.4,5.2-3.3,6.4-6.6C623.2,98.9,621.5,104.8,620.2,102.9"/>
	<path class="st0" d="M654.7,116.4c0.4-0.1,0.6-0.6,1.5-0.6c0.5-0.7-0.1-1.6-0.8-1.7C655.1,114.8,653.9,115.6,654.7,116.4"/>
	<path class="st0" d="M661.3,119.2c-0.3,0-0.5,0-0.7,0.2c-0.1,0.1-0.1,0.2-0.2,0.3c-0.5-0.1-1-0.2-1.5-0.2c-0.2-1.1-0.2-2.2-1-2.2
		c-1.1,0.3-1.1,1.3-1,2.3c-0.2,0-0.3,0-0.5,0c-1-1.6-3.5-2.5-5.6-1.9c-1.9,1.7-5.7,0.9-7.3,4.1c-1.2,0.5-2.9,1.3-4.1,2.5l-0.3-0.2
		c0,0.1,0.1,0.2,0.2,0.3c-2.3-0.1-1.8,3.9-4.3,2.9l0,0.4c-0.6,1.6-0.9-0.5-1.9,0.2c-0.4,1.6-3.3,3-1.3,4.5c-0.2,0.1-0.3-0.1-0.5,0
		l0.1,1.4c0.5,0.2,1.1,0.6,1.8,0.5c-0.1,0.3,0.5,0.7,0.2,1c-0.2,1-1.2-0.1-1.7,0.2c0.2,2.8,0.4,5.7-0.4,8.4c-2,0.3-1.1,3.4-0.5,4.7
		c-0.8,3.3,4.1,4.4,3.7,6.9c-1.7-0.3-1.6-2.9-2.9-2.4l-0.3,0.8c0.2,1.3,0.6,3.8,2.3,3.5c0.2-1.1,0.8-1.5,1.1-2
		c0.6,0.2,1.1,0,1.7,0.4c0.7,0.7,1.1,1.6,0.4,2.3c-0.7-0.1-0.7-0.9-1.1-1.2c-1,0.5,0.1,2.1,0.3,2.7c1.2-2.5,3.8-1.3,3.3-4.3l1.3,0.6
		c1.6-0.7,0.3-2.8,1-3.9c1,1.3,2.1,2.6,3.5,3.6c1.5,1.2,3.1,2.1,4.7,2.8l20.3-34.6c-2.7-2.1-5.7-3.3-8.8-3.9
		C661.5,119.7,661.5,119.5,661.3,119.2"/>
	<path class="st0" d="M628.6,140.9c-1.1-0.2-1.5,1.2-1.9,1.7l0.4,0.6c0.6,1.5,1.9,1.3,2.4,0.3C628.4,143.3,628.4,141.7,628.6,140.9"
		/>
	<path class="st0" d="M631,128c-0.7-0.2-1,0.6-1.3,1.2l1,0.6C630.7,129.2,630.9,128.6,631,128"/>
	<path class="st0" d="M644.9,156.7c-0.9-0.9-0.5-2-1.6-2.6l-1.3,1.6c0.3,1.6,0.6,3.7,2.2,4.5C646.3,159,643.2,158,644.9,156.7"/>
</g>
</svg>
